<?xml version="1.0" encoding="UTF-8" standalone="no"?>
<!DOCTYPE svg PUBLIC "-//W3C//DTD SVG 1.1//EN"
 "http://www.w3.org/Graphics/SVG/1.1/DTD/svg11.dtd">
<!-- Generated by graphviz version 8.1.0 (20230707.0739)
 -->
<!-- Title: G Pages: 1 -->
<svg width="413pt" height="167pt"
 viewBox="0.00 0.00 412.63 167.00" xmlns="http://www.w3.org/2000/svg" xmlns:xlink="http://www.w3.org/1999/xlink">
<g id="graph0" class="graph" transform="scale(1 1) rotate(0) translate(4 163)">
<title>G</title>
<polygon fill="white" stroke="none" points="-4,4 -4,-163 408.63,-163 408.63,4 -4,4"/>
<g id="clust1" class="cluster">
<title>cluster_1</title>
<path fill="GreenYellow" stroke="GreenYellow" d="M95.2,-8C95.2,-8 308.4,-8 308.4,-8 314.4,-8 320.4,-14 320.4,-20 320.4,-20 320.4,-139 320.4,-139 320.4,-145 314.4,-151 308.4,-151 308.4,-151 95.2,-151 95.2,-151 89.2,-151 83.2,-145 83.2,-139 83.2,-139 83.2,-20 83.2,-20 83.2,-14 89.2,-8 95.2,-8"/>
<text text-anchor="middle" x="201.8" y="-133.7" font-family="Times,serif" font-size="14.00">Loop</text>
</g>
<!-- (&#39;Loop&#39;, &#39;Σ&#39;) -->
<g id="node1" class="node">
<title>(&#39;Loop&#39;, &#39;Σ&#39;)</title>
<ellipse fill="HotPink" stroke="black" cx="109.2" cy="-85" rx="18" ry="18"/>
<text text-anchor="middle" x="109.2" y="-79.95" font-family="Times,serif" font-size="14.00">Σ</text>
</g>
<!-- (&#39;Loop&#39;, &#39;Ctrl&#39;) -->
<g id="node2" class="node">
<title>(&#39;Loop&#39;, &#39;Ctrl&#39;)</title>
<ellipse fill="HotPink" stroke="black" cx="195.2" cy="-41" rx="25.25" ry="25.25"/>
<text text-anchor="middle" x="195.2" y="-35.95" font-family="Times,serif" font-size="14.00">Ctrl</text>
</g>
<!-- (&#39;Loop&#39;, &#39;Σ&#39;)&#45;&gt;(&#39;Loop&#39;, &#39;Ctrl&#39;) -->
<g id="edge2" class="edge">
<title>(&#39;Loop&#39;, &#39;Σ&#39;)&#45;&gt;(&#39;Loop&#39;, &#39;Ctrl&#39;)</title>
<path fill="none" stroke="black" d="M125.61,-76.93C136.02,-71.47 150.15,-64.07 162.87,-57.41"/>
<polygon fill="black" stroke="black" points="164.01,-60.24 171.25,-52.5 160.76,-54.04 164.01,-60.24"/>
<text text-anchor="middle" x="148.58" y="-68.2" font-family="Times,serif" font-size="14.00">1</text>
</g>
<!-- (&#39;Loop&#39;, &#39;Sys&#39;) -->
<g id="node3" class="node">
<title>(&#39;Loop&#39;, &#39;Sys&#39;)</title>
<ellipse fill="HotPink" stroke="black" cx="288.18" cy="-80" rx="24.23" ry="24.23"/>
<text text-anchor="middle" x="288.18" y="-74.95" font-family="Times,serif" font-size="14.00">Sys</text>
</g>
<!-- (&#39;Loop&#39;, &#39;Ctrl&#39;)&#45;&gt;(&#39;Loop&#39;, &#39;Sys&#39;) -->
<g id="edge3" class="edge">
<title>(&#39;Loop&#39;, &#39;Ctrl&#39;)&#45;&gt;(&#39;Loop&#39;, &#39;Sys&#39;)</title>
<path fill="none" stroke="black" d="M218.69,-50.64C229.87,-55.43 243.57,-61.31 255.77,-66.54"/>
<polygon fill="black" stroke="black" points="254,-70.02 264.57,-70.74 256.76,-63.58 254,-70.02"/>
<text text-anchor="middle" x="242.2" y="-64.2" font-family="Times,serif" font-size="14.00">P</text>
</g>
<!-- (&#39;Loop&#39;, &#39;Sys&#39;)&#45;&gt;(&#39;Loop&#39;, &#39;Σ&#39;) -->
<g id="edge5" class="edge">
<title>(&#39;Loop&#39;, &#39;Sys&#39;)&#45;&gt;(&#39;Loop&#39;, &#39;Σ&#39;)</title>
<path fill="none" stroke="black" d="M263.57,-81.81C235.41,-83.79 186.89,-86.6 145.2,-86 143.06,-85.97 140.84,-85.93 138.61,-85.88"/>
<polygon fill="black" stroke="black" points="138.73,-82.36 128.65,-85.6 138.55,-89.35 138.73,-82.36"/>
<text text-anchor="middle" x="195.2" y="-88.2" font-family="Times,serif" font-size="14.00">&#45;1</text>
</g>
<!-- (None, &#39;Out&#39;) -->
<g id="node5" class="node">
<title>(None, &#39;Out&#39;)</title>
<ellipse fill="HotPink" stroke="black" cx="379.89" cy="-80" rx="24.74" ry="24.74"/>
<text text-anchor="middle" x="379.89" y="-74.95" font-family="Times,serif" font-size="14.00">Out</text>
</g>
<!-- (&#39;Loop&#39;, &#39;Sys&#39;)&#45;&gt;(None, &#39;Out&#39;) -->
<g id="edge4" class="edge">
<title>(&#39;Loop&#39;, &#39;Sys&#39;)&#45;&gt;(None, &#39;Out&#39;)</title>
<path fill="none" stroke="black" d="M312.75,-80C322.28,-80 333.48,-80 343.92,-80"/>
<polygon fill="black" stroke="black" points="343.85,-83.5 353.85,-80 343.85,-76.5 343.85,-83.5"/>
<text text-anchor="middle" x="333.78" y="-83.2" font-family="Times,serif" font-size="14.00">1</text>
</g>
<!-- (None, &#39;Ref&#39;) -->
<g id="node4" class="node">
<title>(None, &#39;Ref&#39;)</title>
<ellipse fill="HotPink" stroke="black" cx="24.23" cy="-85" rx="24.23" ry="24.23"/>
<text text-anchor="middle" x="24.23" y="-79.95" font-family="Times,serif" font-size="14.00">Ref</text>
</g>
<!-- (None, &#39;Ref&#39;)&#45;&gt;(&#39;Loop&#39;, &#39;Σ&#39;) -->
<g id="edge1" class="edge">
<title>(None, &#39;Ref&#39;)&#45;&gt;(&#39;Loop&#39;, &#39;Σ&#39;)</title>
<path fill="none" stroke="black" d="M48.78,-85C58.53,-85 69.91,-85 80.09,-85"/>
<polygon fill="black" stroke="black" points="79.92,-88.5 89.92,-85 79.92,-81.5 79.92,-88.5"/>
<text text-anchor="middle" x="69.83" y="-88.2" font-family="Times,serif" font-size="14.00">1</text>
</g>
</g>
</svg>
