<?xml version="1.0" encoding="UTF-8" standalone="no"?>
<!DOCTYPE svg PUBLIC "-//W3C//DTD SVG 1.1//EN"
 "http://www.w3.org/Graphics/SVG/1.1/DTD/svg11.dtd">
<!-- Generated by graphviz version 8.1.0 (20230707.0739)
 -->
<!-- Title: G Pages: 1 -->
<svg width="443pt" height="102pt"
 viewBox="0.00 0.00 442.63 101.99" xmlns="http://www.w3.org/2000/svg" xmlns:xlink="http://www.w3.org/1999/xlink">
<g id="graph0" class="graph" transform="scale(1 1) rotate(0) translate(4 97.99)">
<title>G</title>
<polygon fill="white" stroke="none" points="-4,4 -4,-97.99 438.63,-97.99 438.63,4 -4,4"/>
<!-- (None, &#39;Ref&#39;) -->
<g id="node1" class="node">
<title>(None, &#39;Ref&#39;)</title>
<ellipse fill="DeepPink" stroke="DeepPink" cx="24.23" cy="-24.74" rx="24.23" ry="24.23"/>
<text text-anchor="middle" x="24.23" y="-19.69" font-family="Times,serif" font-size="14.00">Ref</text>
</g>
<!-- (None, &#39;Σ&#39;) -->
<g id="node2" class="node">
<title>(None, &#39;Σ&#39;)</title>
<ellipse fill="DeepPink" stroke="DeepPink" cx="109.2" cy="-24.74" rx="18" ry="18"/>
<text text-anchor="middle" x="109.2" y="-19.69" font-family="Times,serif" font-size="14.00">Σ</text>
</g>
<!-- (None, &#39;Ref&#39;)&#45;&gt;(None, &#39;Σ&#39;) -->
<g id="edge1" class="edge">
<title>(None, &#39;Ref&#39;)&#45;&gt;(None, &#39;Σ&#39;)</title>
<path fill="none" stroke="black" d="M48.78,-24.74C58.53,-24.74 69.91,-24.74 80.09,-24.74"/>
<polygon fill="black" stroke="black" points="79.92,-28.24 89.92,-24.74 79.92,-21.24 79.92,-28.24"/>
<text text-anchor="middle" x="69.83" y="-27.94" font-family="Times,serif" font-size="14.00">1</text>
</g>
<!-- (None, &#39;Ctrl&#39;) -->
<g id="node3" class="node">
<title>(None, &#39;Ctrl&#39;)</title>
<ellipse fill="DeepPink" stroke="DeepPink" cx="195.2" cy="-68.74" rx="25.25" ry="25.25"/>
<text text-anchor="middle" x="195.2" y="-63.69" font-family="Times,serif" font-size="14.00">Ctrl</text>
</g>
<!-- (None, &#39;Σ&#39;)&#45;&gt;(None, &#39;Ctrl&#39;) -->
<g id="edge2" class="edge">
<title>(None, &#39;Σ&#39;)&#45;&gt;(None, &#39;Ctrl&#39;)</title>
<path fill="none" stroke="black" d="M125.61,-32.81C136.02,-38.26 150.15,-45.66 162.87,-52.33"/>
<polygon fill="black" stroke="black" points="160.76,-55.7 171.25,-57.24 164.01,-49.5 160.76,-55.7"/>
<text text-anchor="middle" x="148.58" y="-47.94" font-family="Times,serif" font-size="14.00">1</text>
</g>
<!-- (None, &#39;Sys&#39;) -->
<g id="node4" class="node">
<title>(None, &#39;Sys&#39;)</title>
<ellipse fill="DeepPink" stroke="DeepPink" cx="318.18" cy="-24.74" rx="24.23" ry="24.23"/>
<text text-anchor="middle" x="318.18" y="-19.69" font-family="Times,serif" font-size="14.00">Sys</text>
</g>
<!-- (None, &#39;Ctrl&#39;)&#45;&gt;(None, &#39;Sys&#39;) -->
<g id="edge3" class="edge">
<title>(None, &#39;Ctrl&#39;)&#45;&gt;(None, &#39;Sys&#39;)</title>
<path fill="none" stroke="black" d="M219.24,-60.36C237.8,-53.61 264.13,-44.03 284.81,-36.51"/>
<polygon fill="black" stroke="black" points="285.84,-39.5 294.04,-32.79 283.44,-32.92 285.84,-39.5"/>
<text text-anchor="middle" x="257.2" y="-55.94" font-family="Times,serif" font-size="14.00">1000.0</text>
</g>
<!-- (None, &#39;Sys&#39;)&#45;&gt;(None, &#39;Σ&#39;) -->
<g id="edge5" class="edge">
<title>(None, &#39;Sys&#39;)&#45;&gt;(None, &#39;Σ&#39;)</title>
<path fill="none" stroke="black" d="M293.71,-22.28C264.65,-19.56 213.64,-15.87 169.95,-18.24 159.5,-18.8 148.08,-19.92 138.04,-21.08"/>
<polygon fill="black" stroke="black" points="137.92,-17.69 128.42,-22.36 138.77,-24.63 137.92,-17.69"/>
<text text-anchor="middle" x="195.2" y="-21.94" font-family="Times,serif" font-size="14.00">&#45;1</text>
</g>
<!-- (None, &#39;Out&#39;) -->
<g id="node5" class="node">
<title>(None, &#39;Out&#39;)</title>
<ellipse fill="DeepPink" stroke="DeepPink" cx="409.89" cy="-24.74" rx="24.74" ry="24.74"/>
<text text-anchor="middle" x="409.89" y="-19.69" font-family="Times,serif" font-size="14.00">Out</text>
</g>
<!-- (None, &#39;Sys&#39;)&#45;&gt;(None, &#39;Out&#39;) -->
<g id="edge4" class="edge">
<title>(None, &#39;Sys&#39;)&#45;&gt;(None, &#39;Out&#39;)</title>
<path fill="none" stroke="black" d="M342.75,-24.74C352.28,-24.74 363.48,-24.74 373.92,-24.74"/>
<polygon fill="black" stroke="black" points="373.85,-28.24 383.85,-24.74 373.85,-21.24 373.85,-28.24"/>
<text text-anchor="middle" x="363.78" y="-27.94" font-family="Times,serif" font-size="14.00">1</text>
</g>
</g>
</svg>
